HIERARCHY
ROOT root
{
	OFFSET	0	13.1	24.9
	CHANNELS 6  Xposition Yposition Zposition Xrotation Yrotation Zrotation
	JOINT spine_1
	{
		OFFSET	0	9.99999	0
		CHANNELS 3  Xrotation Yrotation Zrotation
		JOINT spine_2
		{
			OFFSET	0	112	-10
			CHANNELS 3  Xrotation Yrotation Zrotation
			JOINT spine_3
			{
				OFFSET	0	206.5	19.3
				CHANNELS 3  Xrotation Yrotation Zrotation
				JOINT spine_4
				{
					OFFSET	0	110.4	14.6
					CHANNELS 3  Xrotation Yrotation Zrotation
					JOINT neck_1
					{
						OFFSET	0	71.8	-50.3
						CHANNELS 3  Xrotation Yrotation Zrotation
						JOINT neck_2
						{
							OFFSET	0	86.2	-25.8
							CHANNELS 3  Xrotation Yrotation Zrotation
							JOINT head_ee
							{
								OFFSET	0	179.8	-8.7
								CHANNELS 3  Xrotation Yrotation Zrotation
								End Site
								{
									OFFSET	1	0	0
								}
							}
						}
					}
					JOINT left_clavicle
					{
						OFFSET	-43.2	22.4	-70.8
						CHANNELS 3  Xrotation Yrotation Zrotation
						JOINT left_shoulder
						{
							OFFSET	-93.9	-5.79999	48.7
							CHANNELS 3  Xrotation Yrotation Zrotation
							JOINT left_elbow
							{
								OFFSET	-291.4	-30.8	15.2
								CHANNELS 3  Xrotation Yrotation Zrotation
								JOINT left_lowarm_twist
								{
									OFFSET	-110.7	-3.89999	13.6
									CHANNELS 3  Xrotation Yrotation Zrotation
									JOINT left_hand
									{
										OFFSET	-110.7	-3.89999	13.6
										CHANNELS 3  Xrotation Yrotation Zrotation
										JOINT left_ee
										{
											OFFSET	-80.8	-5.10001	12.1
											CHANNELS 3  Xrotation Yrotation Zrotation
											End Site
											{
												OFFSET	1	0	0
											}
										}
									}
								}
							}
						}
					}
					JOINT right_clavicle
					{
						OFFSET	43.2	22.4	-70.8
						CHANNELS 3  Xrotation Yrotation Zrotation
						JOINT right_shoulder
						{
							OFFSET	93.9	-5.79999	48.7
							CHANNELS 3  Xrotation Yrotation Zrotation
							JOINT right_elbow
							{
								OFFSET	291.4	-30.8	15.2
								CHANNELS 3  Xrotation Yrotation Zrotation
								JOINT right_lowarm_twist
								{
									OFFSET	110.7	-3.89999	13.6
									CHANNELS 3  Xrotation Yrotation Zrotation
									JOINT right_hand
									{
										OFFSET	110.7	-3.89999	13.6
										CHANNELS 3  Xrotation Yrotation Zrotation
										JOINT right_ee
										{
											OFFSET	80.8	-5.10001	12.1
											CHANNELS 3  Xrotation Yrotation Zrotation
											End Site
											{
												OFFSET	1	0	0
											}
										}
									}
								}
							}
						}
					}
				}
			}
		}
	}
	JOINT left_hip
	{
		OFFSET	-82.8	-127.5	0.300001
		CHANNELS 3  Xrotation Yrotation Zrotation
		JOINT left_knee
		{
			OFFSET	-28.2	-396.7	2.2
			CHANNELS 3  Xrotation Yrotation Zrotation
			JOINT left_ankle
			{
				OFFSET	-11.7	-411.3	35.4
				CHANNELS 3  Xrotation Yrotation Zrotation
				JOINT left_toes
				{
					OFFSET	0	-60	-88.6
					CHANNELS 3  Xrotation Yrotation Zrotation
					JOINT left_foot_ee
					{
						OFFSET	-22.5	-16.5	-42.2
						CHANNELS 3  Xrotation Yrotation Zrotation
						End Site
						{
							OFFSET	1	0	0
						}
					}
				}
			}
		}
	}
	JOINT right_hip
	{
		OFFSET	82.8	-127.5	0.300001
		CHANNELS 3  Xrotation Yrotation Zrotation
		JOINT right_knee
		{
			OFFSET	28.2	-396.7	2.2
			CHANNELS 3  Xrotation Yrotation Zrotation
			JOINT right_ankle
			{
				OFFSET	11.7	-411.3	35.4
				CHANNELS 3  Xrotation Yrotation Zrotation
				JOINT right_toes
				{
					OFFSET	0	-60	-88.6
					CHANNELS 3  Xrotation Yrotation Zrotation
					JOINT right_foot_ee
					{
						OFFSET	22.5	-16.5	-42.2
						CHANNELS 3  Xrotation Yrotation Zrotation
						End Site
						{
							OFFSET	1	0	0
						}
					}
				}
			}
		}
	}
}
MOTION
Frames: 9
Frame Time: 0.02
2125.7 645.947 -1493.52 59.4338 80.7319 -54.528 -2.79404 0.192383 -0.542762 -2.79391 0.22653 -0.52942 -2.79596 0.355281 -0.453187 -2.79614 0.27925 -0.503608 -10.1118 14.0047 8.34744 -10.0706 20.8044 11.619 -0.0 0.0 -0.0 2.23024 24.7763 5.82746 -12.8418 3.92338 72.6375 0.707831 -19.3227 0.120502 -25.9674 -1.59688 2.88199 1.62062 25.0659 19.4706 -0.0 0.0 -0.0 12.2585 14.2024 -24.814 8.56397 31.5051 -59.1042 1.11777 28.9729 -0.288801 -58.9244 5.14929 -5.06644 -12.1226 -32.6845 68.2047 0.0 0.0 0.0 17.4435 -3.08489 -14.3099 -8.04362 0.246659 1.2088 5.74821 -23.3366 -0.971134 -30.2747 0.0 0.0 -0.0 0.0 -0.0 -23.0491 8.55491 -6.69152 -6.9257 -0.222576 -1.03894 40.9441 -7.76389 4.94488 -11.4561 0.0 0.0 0.0 0.0 0.0 
2109.3 645.431 -1488.74 61.1826 81.7065 -55.9238 -2.53199 0.0483861 -0.638698 -2.53176 0.0889293 -0.634325 -2.53256 0.246635 -0.591143 -2.53302 0.150182 -0.622674 -8.92083 13.6947 7.04183 -8.88619 20.8405 10.0881 -0.0 0.0 -0.0 2.8167 24.7549 6.61205 -13.3069 1.60417 71.7975 0.75508 -20.508 0.136597 -24.5475 -1.4769 2.74518 1.862 25.5248 21.0597 -0.0 0.0 -0.0 12.1178 12.6444 -24.5261 7.24307 30.3084 -59.9587 1.09502 28.4765 -0.277869 -58.129 5.05102 -5.03913 -12.2309 -33.134 68.4268 0.0 0.0 0.0 17.4683 -2.85637 -14.3191 -8.2252 0.250257 1.23643 7.74237 -21.6477 -1.27599 -29.0684 0.0 0.0 -0.0 0.0 -0.0 -22.636 6.46508 -7.15541 -6.87953 -0.22151 -1.03194 40.9374 -8.56823 4.94831 -10.8183 0.0 0.0 0.0 0.0 0.0 
2086.62 647.506 -1480.07 60.4481 82.1508 -55.113 -2.41662 -0.0247539 -0.763609 -2.4163 0.0238852 -0.763637 -2.4163 0.214963 -0.733147 -2.41703 0.0964818 -0.757894 -8.03847 14.3584 7.23699 -7.96482 21.7551 10.2822 -0.0 0.0 -0.0 2.81621 24.383 6.60226 -12.3568 2.33075 72.2679 0.782046 -21.1764 0.146192 -23.2704 -1.37193 2.61965 2.16528 25.8597 23.0067 -0.0 0.0 -0.0 11.8977 11.6019 -24.0395 5.66666 28.2245 -60.4145 1.05467 27.5843 -0.258905 -57.7096 4.99937 -5.02418 -12.3689 -33.7463 68.4802 0.0 0.0 0.0 16.8587 -1.51655 -14.0865 -8.76267 0.260395 1.31828 11.0002 -22.859 -1.81117 -28.4976 0.0 0.0 -0.0 0.0 -0.0 -22.0248 4.78721 -6.61307 -9.56521 -0.274102 -1.44067 40.9972 -8.26995 4.95181 -8.71865 0.0 0.0 0.0 0.0 0.0 
2061.28 644.178 -1479.51 63.5691 82.2825 -57.8342 -2.32636 -0.149461 -0.863224 -2.32595 -0.0942308 -0.870985 -2.32403 0.126199 -0.86693 -2.32508 -0.012295 -0.875981 -7.24486 14.2896 5.98065 -7.18009 22.3434 8.90242 -0.0 0.0 -0.0 1.88543 23.743 5.31248 -10.802 0.333092 73.0796 0.779173 -21.1055 0.145155 -21.6403 -1.24206 2.4561 2.77494 26.4362 26.9698 -0.0 0.0 -0.0 11.6801 10.7531 -23.554 4.83066 25.8605 -61.8283 0.970558 25.6771 -0.221197 -54.8289 4.64757 -4.91132 -12.3712 -33.8515 68.043 0.0 0.0 0.0 16.6904 -0.53491 -14.7646 -12.9887 0.313276 1.96443 16.6986 -25.4728 -2.75282 -27.7311 0.0 0.0 -0.0 0.0 -0.0 -21.3433 2.13363 -6.85324 -16.6657 -0.320435 -2.52844 40.8908 -10.7865 4.96038 -2.49665 0.0 0.0 0.0 0.0 0.0 
2045.58 642.454 -1477.25 65.993 82.3834 -59.5954 -2.22747 -0.0363398 -0.939296 -2.22698 0.023501 -0.939705 -2.2269 0.255842 -0.904516 -2.22802 0.109787 -0.933566 -5.28461 14.5471 7.64564 -5.08022 21.1365 10.2931 -0.0 0.0 -0.0 1.75359 23.6633 5.12795 -9.51942 -1.41906 73.2362 0.86323 -23.1522 0.176824 -21.5465 -1.23473 2.44658 2.79157 27.9844 27.3676 -0.0 0.0 -0.0 11.6195 9.12014 -23.4163 3.79565 23.3482 -61.893 0.903967 24.1225 -0.193158 -52.8529 4.40967 -4.82373 -12.3721 -33.8345 68.1404 0.0 0.0 0.0 16.065 1.78767 -15.3309 -13.3378 0.315511 2.01795 22.1692 -24.9864 -3.52667 -27.7572 0.0 0.0 -0.0 0.0 -0.0 -20.6269 -0.200976 -7.81445 -20.8634 -0.284376 -3.17136 37.6721 -14.5028 4.7113 2.11757 -0.0 -0.0 0.0 0.0 0.0 
2023.51 645.401 -1474.24 60.6952 82.4639 -54.2049 -2.13822 -0.145943 -1.20863 -2.13741 -0.0687443 -1.21547 -2.13509 0.232962 -1.19492 -2.13708 0.041338 -1.21671 -3.49393 15.8274 9.83125 -3.12952 21.3204 12.4723 -0.0 0.0 -0.0 0.168863 22.9441 2.89126 -2.35629 -2.55958 77.8869 0.848437 -22.7964 0.17105 -19.9796 -1.11462 2.28579 2.88056 29.7105 28.22 -0.0 0.0 -0.0 11.8656 8.84725 -23.9652 1.29019 21.0334 -61.3864 0.828944 22.3246 -0.163571 -50.4591 4.12568 -4.7067 -12.4084 -33.9847 68.1903 0.0 0.0 0.0 15.9644 2.59088 -15.1313 -15.744 0.32204 2.38704 24.5861 -26.1739 -3.90459 -29.4809 0.0 0.0 -0.0 0.0 -0.0 -19.1351 -3.52765 -7.23503 -24.841 -0.206856 -3.77669 33.2383 -17.017 4.30627 4.83908 -0.0 -0.0 0.0 0.0 0.0 
2006.98 648.49 -1467.76 55.0457 81.8609 -48.7567 -2.09148 -0.31254 -1.26787 -2.09061 -0.231236 -1.28518 -2.08434 0.0914764 -1.30261 -2.08669 -0.115376 -1.30071 -3.58028 14.8413 9.10773 -3.26817 20.0955 11.6034 -0.0 0.0 -0.0 -0.962035 23.1557 1.35638 1.82175 -2.00805 81.1751 0.815172 -21.9893 0.158377 -19.1181 -1.05047 2.19602 2.83211 28.9151 27.7861 -0.0 0.0 -0.0 11.8414 8.42958 -23.9058 -0.145734 18.9164 -61.4186 0.758611 20.5959 -0.137837 -48.6665 3.91633 -4.61135 -12.3832 -33.8439 68.3224 0.0 0.0 0.0 14.6548 5.88637 -15.3182 -16.0011 0.321821 2.42649 29.2025 -25.3512 -4.45815 -28.6117 0.0 0.0 -0.0 0.0 -0.0 -18.3288 -5.3711 -5.22775 -27.4507 -0.133238 -4.17039 33.5459 -17.2813 4.34227 8.29146 -0.0 -0.0 0.0 0.0 0.0 
1990.74 646.482 -1466.18 50.9705 81.3708 -44.2192 -2.12712 -0.422383 -1.44067 -2.12602 -0.329864 -1.46462 -2.11612 0.0407458 -1.50075 -2.11921 -0.196754 -1.48835 -3.42649 15.2571 10.3433 -3.05506 19.846 12.9095 -0.0 0.0 -0.0 -1.76051 22.5575 0.159759 5.17062 -1.58994 83.0944 0.795012 -21.4957 0.150909 -18.9867 -1.04081 2.18225 2.83403 29.0042 27.8132 -0.0 0.0 -0.0 11.4049 7.11099 -22.913 -1.1025 18.3924 -62.7344 0.749037 20.3574 -0.134487 -47.4805 3.7795 -4.54469 -12.364 -33.7331 68.4401 0.0 0.0 0.0 13.2608 8.13864 -16.1277 -16.2439 0.321451 2.46373 32.2418 -25.6354 -4.831 -27.7118 0.0 0.0 -0.0 0.0 -0.0 -17.7578 -8.21863 -5.26107 -30.414 -0.0279857 -4.61295 33.1996 -21.6217 4.38576 9.05126 -0.0 -0.0 0.0 0.0 0.0 
1976.84 645.418 -1458.46 53.8474 81.1233 -47.0134 -2.22397 -0.648503 -1.36886 -2.22311 -0.560093 -1.40734 -2.2078 -0.194176 -1.50218 -2.2107 -0.428956 -1.45268 -2.71144 15.5779 10.9018 -2.29425 19.7639 13.4585 -0.0 0.0 -0.0 -2.0739 22.1182 -0.352994 7.53571 -1.35945 84.3143 0.784258 -21.231 0.146992 -18.18 -0.982179 2.0972 2.941 29.0282 28.4918 -0.0 0.0 -0.0 11.3307 6.77089 -22.7423 -2.66006 16.5998 -62.2064 0.674747 18.4823 -0.109784 -46.6492 3.68441 -4.49628 -12.3527 -33.6841 68.4332 0.0 0.0 0.0 12.0027 9.93701 -15.8938 -16.4885 0.32092 2.50125 35.8507 -25.722 -5.23059 -27.2827 0.0 0.0 -0.0 0.0 -0.0 -17.1144 -9.71748 -4.95231 -32.137 0.043703 -4.86763 30.2919 -23.9719 4.1165 9.73186 -0.0 -0.0 0.0 0.0 0.0 
